<svg xmlns="http://www.w3.org/2000/svg" viewBox="0 0 80 50" fill="none">
  <!-- AWS text -->
  <path fill="#F90" d="M6 30.5l2.1-7.6h1.5l1.4 5.3 1.4-5.3h1.5l2.1 7.6h-1.4l-1.4-5.5-1.4 5.5H10l-1.4-5.5-1.4 5.5H6zm10.8 0v-7.6h5.2v1.2h-3.8v2h3.4v1.2h-3.4v2h3.9v1.2h-5.3zm8.6 0l-2.6-7.6h1.5l1.9 5.8 1.9-5.8H30l-2.6 7.6h-2z"/>
  <!-- Swoosh arrow -->
  <path fill="#F90" d="M56 36.5c-7.2 5-17.7 7.7-26.7 7.7-12.7 0-24.1-4.7-32.7-12.5-.7-.6-.1-1.4.8-.9 9.3 5.4 20.8 8.6 32.6 8.6 8 0 16.8-1.7 24.9-5.1 1.2-.5 2.2.8.9 1.8l.2.4z"/>
  <path fill="#F90" d="M59.3 32.7c-1-1.2-6.2-.6-8.5-.3-.7.1-.8-.5-.2-1 4.2-2.9 11-2.1 11.8-1.1.8 1-.2 8-4.2 11.3-.6.5-1.1.2-.9-.4 1-2.3 3-7.4 2-9.5z"/>
</svg>
