<svg width="24" height="37" viewBox="0 0 24 37" fill="none" xmlns="http://www.w3.org/2000/svg">
<defs>
  <linearGradient id="favGrad" x1="0" y1="0" x2="24" y2="37" gradientUnits="userSpaceOnUse">
    <stop offset="0%" stop-color="#4f6ef7"/>
    <stop offset="100%" stop-color="#1e3a8a"/>
  </linearGradient>
</defs>
<path d="M6.62687 8.66341C6.62687 8.36437 6.86743 8.12195 7.16418 8.12195H10.0299C10.3266 8.12195 10.5672 8.36437 10.5672 8.66341V9.74634C10.5672 10.0454 10.3266 10.2878 10.0299 10.2878H7.16418C6.86743 10.2878 6.62687 10.0454 6.62687 9.74634V8.66341Z" fill="url(#favGrad)"/>
<path d="M13.4328 8.66341C13.4328 8.36437 13.6734 8.12195 13.9701 8.12195H16.8358C17.1326 8.12195 17.3731 8.36437 17.3731 8.66341V9.74634C17.3731 10.0454 17.1326 10.2878 16.8358 10.2878H13.9701C13.6734 10.2878 13.4328 10.0454 13.4328 9.74634V8.66341Z" fill="url(#favGrad)"/>
<path fill-rule="evenodd" clip-rule="evenodd" d="M14.937 4.5122C15.5609 4.03322 15.9403 3.40071 15.9403 2.70732C15.9403 1.21211 14.1762 0 12 0C9.82383 0 8.0597 1.21211 8.0597 2.70732C8.0597 3.40071 8.43909 4.03322 9.06302 4.5122H4.83582C3.84666 4.5122 3.04478 5.32027 3.04478 6.31707V14.2585C3.04478 15.2553 3.84666 16.0634 4.83582 16.0634H19.1642C20.1533 16.0634 20.9552 15.2553 20.9552 14.2585V6.31707C20.9552 5.32027 20.1533 4.5122 19.1642 4.5122H14.937ZM5.19403 8.8439C5.19403 7.64773 6.15628 6.67805 7.34328 6.67805H16.6567C17.8437 6.67805 18.806 7.64773 18.806 8.8439V9.56585C18.806 10.762 17.8437 11.7317 16.6567 11.7317H7.34328C6.15628 11.7317 5.19403 10.762 5.19403 9.56585V8.8439Z" fill="url(#favGrad)"/>
<path fill-rule="evenodd" clip-rule="evenodd" d="M3.04478 18.5902C3.04478 17.5934 3.84666 16.7854 4.83582 16.7854H19.1642C20.1533 16.7854 20.9552 17.5934 20.9552 18.5902V19.8537C20.9552 19.1559 21.5165 18.5902 22.209 18.5902C22.9014 18.5902 23.4627 19.1559 23.4627 19.8537V28.1561C23.4627 28.8539 22.9014 29.4195 22.209 29.4195C21.5165 29.4195 20.9552 28.8539 20.9552 28.1561V31.2244C20.9552 31.9388 20.5433 32.5563 19.9458 32.8488H22.0299C23.1179 32.8488 24 33.7377 24 34.8341V35.0146C24 36.1111 23.1179 37 22.0299 37H17.9104C16.8224 37 15.9403 36.1111 15.9403 35.0146V34.8341C15.9403 34.0333 16.4109 33.3432 17.0885 33.0293H6.91146C7.58915 33.3432 8.0597 34.0333 8.0597 34.8341V35.0146C8.0597 36.1111 7.17764 37 6.08955 37H1.97015C0.882065 37 0 36.1111 0 35.0146V34.8341C0 33.7377 0.882065 32.8488 1.97015 32.8488H4.05418C3.45666 32.5563 3.04478 31.9388 3.04478 31.2244V28.1561C3.04478 28.8539 2.48346 29.4195 1.79104 29.4195C1.09863 29.4195 0.537313 28.8539 0.537313 28.1561V19.8537C0.537313 19.1559 1.09863 18.5902 1.79104 18.5902C2.48346 18.5902 3.04478 19.1559 3.04478 19.8537V18.5902ZM4.83582 20.0341C4.83582 19.2367 5.47732 18.5902 6.26866 18.5902H17.7313C18.5227 18.5902 19.1642 19.2367 19.1642 20.0341V29.7805C19.1642 30.5779 18.5227 31.2244 17.7313 31.2244H6.26866C5.47732 31.2244 4.83582 30.5779 4.83582 29.7805V20.0341Z" fill="url(#favGrad)"/>
<path d="M12 29.239C13.14 29.239 14.2334 28.7826 15.0395 27.9703C15.8456 27.1579 16.2985 26.0562 16.2985 24.9073C16.2985 23.7585 15.8456 22.6567 15.0395 21.8443C14.2334 21.032 13.14 20.5756 12 20.5756C10.86 20.5756 9.76662 21.032 8.9605 21.8443C8.15437 22.6567 7.70149 23.7585 7.70149 24.9073C7.70149 26.0562 8.15437 27.1579 8.9605 27.9703C9.76662 28.7826 10.86 29.239 12 29.239ZM11.597 26.3963V25.3134H10.5224C10.2991 25.3134 10.1194 25.1324 10.1194 24.9073C10.1194 24.6823 10.2991 24.5012 10.5224 24.5012H11.597V23.4183C11.597 23.1932 11.7767 23.0122 12 23.0122C12.2233 23.0122 12.403 23.1932 12.403 23.4183V24.5012H13.4776C13.7009 24.5012 13.8806 24.6823 13.8806 24.9073C13.8806 25.1324 13.7009 25.3134 13.4776 25.3134H12.403V26.3963C12.403 26.6214 12.2233 26.8024 12 26.8024C11.7767 26.8024 11.597 26.6214 11.597 26.3963Z" fill="url(#favGrad)"/>
</svg>
