<svg width="16" height="24" viewBox="0 0 16 24" fill="none" xmlns="http://www.w3.org/2000/svg">
<path d="M4.41791 5.61951C4.41791 5.42554 4.57829 5.26829 4.77612 5.26829H6.68657C6.8844 5.26829 7.04478 5.42554 7.04478 5.61951V6.32195C7.04478 6.51592 6.8844 6.67317 6.68657 6.67317H4.77612C4.57829 6.67317 4.41791 6.51592 4.41791 6.32195V5.61951Z" fill="white"/>
<path d="M8.95522 5.61951C8.95522 5.42554 9.1156 5.26829 9.31343 5.26829H11.2239C11.4217 5.26829 11.5821 5.42554 11.5821 5.61951V6.32195C11.5821 6.51592 11.4217 6.67317 11.2239 6.67317H9.31343C9.1156 6.67317 8.95522 6.51592 8.95522 6.32195V5.61951Z" fill="white"/>
<path fill-rule="evenodd" clip-rule="evenodd" d="M9.95799 2.92683C10.3739 2.61614 10.6269 2.20587 10.6269 1.7561C10.6269 0.786232 9.45078 0 8 0C6.54922 0 5.37313 0.786232 5.37313 1.7561C5.37313 2.20587 5.62606 2.61614 6.04201 2.92683H3.22388C2.56444 2.92683 2.02985 3.45098 2.02985 4.09756V9.24878C2.02985 9.89536 2.56444 10.4195 3.22388 10.4195H12.7761C13.4356 10.4195 13.9702 9.89536 13.9702 9.24878V4.09756C13.9702 3.45098 13.4356 2.92683 12.7761 2.92683H9.95799ZM3.46269 5.73658C3.46269 4.96069 4.10419 4.33171 4.89552 4.33171H11.1045C11.8958 4.33171 12.5373 4.96069 12.5373 5.73658V6.20488C12.5373 6.98077 11.8958 7.60976 11.1045 7.60976H4.89552C4.10419 7.60976 3.46269 6.98077 3.46269 6.20488V5.73658Z" fill="white"/>
<path fill-rule="evenodd" clip-rule="evenodd" d="M2.02985 12.0585C2.02985 11.412 2.56444 10.8878 3.22388 10.8878H12.7761C13.4356 10.8878 13.9702 11.412 13.9702 12.0585V12.878C13.9702 12.4254 14.3444 12.0585 14.806 12.0585C15.2676 12.0585 15.6418 12.4254 15.6418 12.878V18.2634C15.6418 18.716 15.2676 19.0829 14.806 19.0829C14.3444 19.0829 13.9702 18.716 13.9702 18.2634V20.2537C13.9702 20.7171 13.6956 21.1176 13.2972 21.3073H14.6866C15.412 21.3073 16 21.8839 16 22.5951V22.7122C16 23.4234 15.412 24 14.6866 24H11.9403C11.2149 24 10.6269 23.4234 10.6269 22.7122V22.5951C10.6269 22.0756 10.9406 21.628 11.3924 21.4244H4.60764C5.05943 21.628 5.37313 22.0756 5.37313 22.5951V22.7122C5.37313 23.4234 4.78509 24 4.0597 24H1.31343C0.588044 24 0 23.4234 0 22.7122V22.5951C0 21.8839 0.588044 21.3073 1.31343 21.3073H2.70279C2.30444 21.1176 2.02985 20.7171 2.02985 20.2537V18.2634C2.02985 18.716 1.65564 19.0829 1.19403 19.0829C0.732422 19.0829 0.358209 18.716 0.358209 18.2634V12.878C0.358209 12.4254 0.732422 12.0585 1.19403 12.0585C1.65564 12.0585 2.02985 12.4254 2.02985 12.878V12.0585ZM3.22388 12.9951C3.22388 12.4779 3.65155 12.0585 4.1791 12.0585H11.8209C12.3485 12.0585 12.7761 12.4779 12.7761 12.9951V19.3171C12.7761 19.8343 12.3485 20.2537 11.8209 20.2537H4.1791C3.65155 20.2537 3.22388 19.8343 3.22388 19.3171V12.9951Z" fill="white"/>
<path d="M8 18.9659C8.76002 18.9659 9.48892 18.6698 10.0263 18.1429C10.5638 17.616 10.8657 16.9013 10.8657 16.1561C10.8657 15.4109 10.5638 14.6962 10.0263 14.1693C9.48892 13.6424 8.76002 13.3463 8 13.3463C7.23998 13.3463 6.51108 13.6424 5.97366 14.1693C5.43625 14.6962 5.13433 15.4109 5.13433 16.1561C5.13433 16.9013 5.43625 17.616 5.97366 18.1429C6.51108 18.6698 7.23998 18.9659 8 18.9659ZM7.73134 17.1219V16.4195H7.01493C6.86605 16.4195 6.74627 16.3021 6.74627 16.1561C6.74627 16.0101 6.86605 15.8927 7.01493 15.8927H7.73134V15.1902C7.73134 15.0443 7.85112 14.9268 8 14.9268C8.14888 14.9268 8.26866 15.0443 8.26866 15.1902V15.8927H8.98507C9.13396 15.8927 9.25373 16.0101 9.25373 16.1561C9.25373 16.3021 9.13396 16.4195 8.98507 16.4195H8.26866V17.1219C8.26866 17.2679 8.14888 17.3854 8 17.3854C7.85112 17.3854 7.73134 17.2679 7.73134 17.1219Z" fill="white"/>
</svg>
