<svg xmlns="http://www.w3.org/2000/svg" viewBox="0 0 96 96" fill="none">
  <defs>
    <linearGradient id="a" x1="0.5" y1="0" x2="0.5" y2="1">
      <stop offset="0%" stop-color="#114A8B"/>
      <stop offset="100%" stop-color="#0669BC"/>
    </linearGradient>
    <linearGradient id="b" x1="0.5" y1="0" x2="0.5" y2="1">
      <stop offset="0%" stop-color="#3CCBF4"/>
      <stop offset="100%" stop-color="#2892DF"/>
    </linearGradient>
  </defs>
  <path fill="url(#a)" d="M33.34 6.54h26.04L33.74 83.4a4.23 4.23 0 01-4 2.86H8.17a4.23 4.23 0 01-4-5.63L27.3 9.4a4.23 4.23 0 014-2.86z"/>
  <path fill="#0078D4" d="M71.17 60.26H29.55a1.95 1.95 0 00-1.33 3.37l26.8 25a4.23 4.23 0 002.88 1.13h23.58z"/>
  <path fill="url(#b)" d="M33.34 6.54a4.19 4.19 0 00-4 2.91L4.21 80.6a4.23 4.23 0 004 5.66h21.82a4.54 4.54 0 003.45-2.92l5.27-15.53 18.83 17.52a4.32 4.32 0 002.72.93h23.8L71.08 60.26H45.93L62.1 6.54z"/>
</svg>
