<svg width="84" height="24" viewBox="0 0 84 24" fill="none" xmlns="http://www.w3.org/2000/svg">
<path d="M4.41791 5.61951C4.41791 5.42554 4.57829 5.26829 4.77612 5.26829H6.68657C6.8844 5.26829 7.04478 5.42554 7.04478 5.61951V6.32195C7.04478 6.51592 6.8844 6.67317 6.68657 6.67317H4.77612C4.57829 6.67317 4.41791 6.51592 4.41791 6.32195V5.61951Z" fill="white"/>
<path d="M8.95522 5.61951C8.95522 5.42554 9.1156 5.26829 9.31343 5.26829H11.2239C11.4217 5.26829 11.5821 5.42554 11.5821 5.61951V6.32195C11.5821 6.51592 11.4217 6.67317 11.2239 6.67317H9.31343C9.1156 6.67317 8.95522 6.51592 8.95522 6.32195V5.61951Z" fill="white"/>
<path fill-rule="evenodd" clip-rule="evenodd" d="M9.95799 2.92683C10.3739 2.61614 10.6269 2.20587 10.6269 1.7561C10.6269 0.786232 9.45078 0 8 0C6.54922 0 5.37313 0.786232 5.37313 1.7561C5.37313 2.20587 5.62606 2.61614 6.04201 2.92683H3.22388C2.56444 2.92683 2.02985 3.45098 2.02985 4.09756V9.24878C2.02985 9.89536 2.56444 10.4195 3.22388 10.4195H12.7761C13.4356 10.4195 13.9702 9.89536 13.9702 9.24878V4.09756C13.9702 3.45098 13.4356 2.92683 12.7761 2.92683H9.95799ZM3.46269 5.73658C3.46269 4.96069 4.10419 4.33171 4.89552 4.33171H11.1045C11.8958 4.33171 12.5373 4.96069 12.5373 5.73658V6.20488C12.5373 6.98077 11.8958 7.60976 11.1045 7.60976H4.89552C4.10419 7.60976 3.46269 6.98077 3.46269 6.20488V5.73658Z" fill="white"/>
<path fill-rule="evenodd" clip-rule="evenodd" d="M2.02985 12.0585C2.02985 11.412 2.56444 10.8878 3.22388 10.8878H12.7761C13.4356 10.8878 13.9702 11.412 13.9702 12.0585V12.878C13.9702 12.4254 14.3444 12.0585 14.806 12.0585C15.2676 12.0585 15.6418 12.4254 15.6418 12.878V18.2634C15.6418 18.716 15.2676 19.0829 14.806 19.0829C14.3444 19.0829 13.9702 18.716 13.9702 18.2634V20.2537C13.9702 20.7171 13.6956 21.1176 13.2972 21.3073H14.6866C15.412 21.3073 16 21.8839 16 22.5951V22.7122C16 23.4234 15.412 24 14.6866 24H11.9403C11.2149 24 10.6269 23.4234 10.6269 22.7122V22.5951C10.6269 22.0756 10.9406 21.628 11.3924 21.4244H4.60764C5.05943 21.628 5.37313 22.0756 5.37313 22.5951V22.7122C5.37313 23.4234 4.78509 24 4.0597 24H1.31343C0.588044 24 0 23.4234 0 22.7122V22.5951C0 21.8839 0.588044 21.3073 1.31343 21.3073H2.70279C2.30444 21.1176 2.02985 20.7171 2.02985 20.2537V18.2634C2.02985 18.716 1.65564 19.0829 1.19403 19.0829C0.732422 19.0829 0.358209 18.716 0.358209 18.2634V12.878C0.358209 12.4254 0.732422 12.0585 1.19403 12.0585C1.65564 12.0585 2.02985 12.4254 2.02985 12.878V12.0585ZM3.22388 12.9951C3.22388 12.4779 3.65155 12.0585 4.1791 12.0585H11.8209C12.3485 12.0585 12.7761 12.4779 12.7761 12.9951V19.3171C12.7761 19.8343 12.3485 20.2537 11.8209 20.2537H4.1791C3.65155 20.2537 3.22388 19.8343 3.22388 19.3171V12.9951Z" fill="white"/>
<path d="M8 18.9659C8.76002 18.9659 9.48892 18.6698 10.0263 18.1429C10.5638 17.616 10.8657 16.9013 10.8657 16.1561C10.8657 15.4109 10.5638 14.6962 10.0263 14.1693C9.48892 13.6424 8.76002 13.3463 8 13.3463C7.23998 13.3463 6.51108 13.6424 5.97366 14.1693C5.43625 14.6962 5.13433 15.4109 5.13433 16.1561C5.13433 16.9013 5.43625 17.616 5.97366 18.1429C6.51108 18.6698 7.23998 18.9659 8 18.9659ZM7.73134 17.1219V16.4195H7.01493C6.86605 16.4195 6.74627 16.3021 6.74627 16.1561C6.74627 16.0101 6.86605 15.8927 7.01493 15.8927H7.73134V15.1902C7.73134 15.0443 7.85112 14.9268 8 14.9268C8.14888 14.9268 8.26866 15.0443 8.26866 15.1902V15.8927H8.98507C9.13396 15.8927 9.25373 16.0101 9.25373 16.1561C9.25373 16.3021 9.13396 16.4195 8.98507 16.4195H8.26866V17.1219C8.26866 17.2679 8.14888 17.3854 8 17.3854C7.85112 17.3854 7.73134 17.2679 7.73134 17.1219Z" fill="white"/>
<path d="M30.73 5.66406V7.33806H27.4V18.1741H25.348V7.33806H22V5.66406H30.73Z" fill="white"/>
<path d="M32.1242 13.1701C32.1242 12.1741 32.3282 11.2921 32.7362 10.5241C33.1562 9.75606 33.7202 9.16206 34.4282 8.74206C35.1482 8.31006 35.9402 8.09406 36.8042 8.09406C37.5842 8.09406 38.2622 8.25006 38.8382 8.56206C39.4262 8.86206 39.8942 9.24006 40.2422 9.69606V8.25606H42.3122V18.1741H40.2422V16.6981C39.8942 17.1661 39.4202 17.5561 38.8202 17.8681C38.2202 18.1801 37.5362 18.3361 36.7682 18.3361C35.9162 18.3361 35.1362 18.1201 34.4282 17.6881C33.7202 17.2441 33.1562 16.6321 32.7362 15.8521C32.3282 15.0601 32.1242 14.1661 32.1242 13.1701ZM40.2422 13.2061C40.2422 12.5221 40.0982 11.9281 39.8102 11.4241C39.5342 10.9201 39.1682 10.5361 38.7122 10.2721C38.2562 10.0081 37.7642 9.87606 37.2362 9.87606C36.7082 9.87606 36.2162 10.0081 35.7602 10.2721C35.3042 10.5241 34.9322 10.9021 34.6442 11.4061C34.3682 11.8981 34.2302 12.4861 34.2302 13.1701C34.2302 13.8541 34.3682 14.4541 34.6442 14.9701C34.9322 15.4861 35.3042 15.8821 35.7602 16.1581C36.2282 16.4221 36.7202 16.5541 37.2362 16.5541C37.7642 16.5541 38.2562 16.4221 38.7122 16.1581C39.1682 15.8941 39.5342 15.5101 39.8102 15.0061C40.0982 14.4901 40.2422 13.8901 40.2422 13.2061Z" fill="white"/>
<path d="M44.3234 13.2061C44.3234 12.1861 44.5274 11.2921 44.9354 10.5241C45.3554 9.74406 45.9314 9.14406 46.6634 8.72406C47.3954 8.30406 48.2354 8.09406 49.1834 8.09406C50.3834 8.09406 51.3734 8.38206 52.1534 8.95806C52.9454 9.52206 53.4794 10.3321 53.7554 11.3881H51.5414C51.3614 10.8961 51.0734 10.5121 50.6774 10.2361C50.2814 9.96006 49.7834 9.82206 49.1834 9.82206C48.3434 9.82206 47.6714 10.1221 47.1674 10.7221C46.6754 11.3101 46.4294 12.1381 46.4294 13.2061C46.4294 14.2741 46.6754 15.1081 47.1674 15.7081C47.6714 16.3081 48.3434 16.6081 49.1834 16.6081C50.3714 16.6081 51.1574 16.0861 51.5414 15.0421H53.7554C53.4674 16.0501 52.9274 16.8541 52.1354 17.4541C51.3434 18.0421 50.3594 18.3361 49.1834 18.3361C48.2354 18.3361 47.3954 18.1261 46.6634 17.7061C45.9314 17.2741 45.3554 16.6741 44.9354 15.9061C44.5274 15.1261 44.3234 14.2261 44.3234 13.2061Z" fill="white"/>
<path d="M62.4963 11.7481C63.1683 11.8681 63.7383 12.2221 64.2063 12.8101C64.6743 13.3981 64.9083 14.0641 64.9083 14.8081C64.9083 15.4441 64.7403 16.0201 64.4043 16.5361C64.0803 17.0401 63.6063 17.4421 62.9823 17.7421C62.3583 18.0301 61.6323 18.1741 60.8043 18.1741H55.8003V5.66406H60.5703C61.4223 5.66406 62.1543 5.80806 62.7663 6.09606C63.3783 6.38406 63.8403 6.77406 64.1523 7.26606C64.4643 7.74606 64.6203 8.28606 64.6203 8.88606C64.6203 9.60606 64.4283 10.2061 64.0443 10.6861C63.6603 11.1661 63.1443 11.5201 62.4963 11.7481ZM57.8523 10.9201H60.3903C61.0623 10.9201 61.5843 10.7701 61.9563 10.4701C62.3403 10.1581 62.5323 9.71406 62.5323 9.13806C62.5323 8.57406 62.3403 8.13606 61.9563 7.82406C61.5843 7.50006 61.0623 7.33806 60.3903 7.33806H57.8523V10.9201ZM60.6243 16.5001C61.3203 16.5001 61.8663 16.3321 62.2623 15.9961C62.6583 15.6601 62.8563 15.1921 62.8563 14.5921C62.8563 13.9801 62.6463 13.4941 62.2263 13.1341C61.8063 12.7741 61.2483 12.5941 60.5523 12.5941H57.8523V16.5001H60.6243Z" fill="white"/>
<path d="M71.4402 18.3361C70.5042 18.3361 69.6582 18.1261 68.9022 17.7061C68.1462 17.2741 67.5522 16.6741 67.1202 15.9061C66.6882 15.1261 66.4722 14.2261 66.4722 13.2061C66.4722 12.1981 66.6942 11.3041 67.1382 10.5241C67.5822 9.74406 68.1882 9.14406 68.9562 8.72406C69.7242 8.30406 70.5822 8.09406 71.5302 8.09406C72.4782 8.09406 73.3362 8.30406 74.1042 8.72406C74.8722 9.14406 75.4782 9.74406 75.9222 10.5241C76.3662 11.3041 76.5882 12.1981 76.5882 13.2061C76.5882 14.2141 76.3602 15.1081 75.9042 15.8881C75.4482 16.6681 74.8242 17.2741 74.0322 17.7061C73.2522 18.1261 72.3882 18.3361 71.4402 18.3361ZM71.4402 16.5541C71.9682 16.5541 72.4602 16.4281 72.9162 16.1761C73.3842 15.9241 73.7622 15.5461 74.0502 15.0421C74.3382 14.5381 74.4822 13.9261 74.4822 13.2061C74.4822 12.4861 74.3442 11.8801 74.0682 11.3881C73.7922 10.8841 73.4262 10.5061 72.9702 10.2541C72.5142 10.0021 72.0222 9.87606 71.4942 9.87606C70.9662 9.87606 70.4742 10.0021 70.0182 10.2541C69.5742 10.5061 69.2202 10.8841 68.9562 11.3881C68.6922 11.8801 68.5602 12.4861 68.5602 13.2061C68.5602 14.2741 68.8302 15.1021 69.3702 15.6901C69.9222 16.2661 70.6122 16.5541 71.4402 16.5541Z" fill="white"/>
<path d="M81.0107 9.93006V15.4201C81.0107 15.7921 81.0947 16.0621 81.2627 16.2301C81.4427 16.3861 81.7428 16.4641 82.1628 16.4641H83.4227V18.1741H81.8027C80.8787 18.1741 80.1707 17.9581 79.6787 17.5261C79.1867 17.0941 78.9408 16.3921 78.9408 15.4201V9.93006H77.7707V8.25606H78.9408V5.79006H81.0107V8.25606H83.4227V9.93006H81.0107Z" fill="white"/>
</svg>
