<svg width="177" height="57" viewBox="0 0 177 57" fill="none" xmlns="http://www.w3.org/2000/svg">
<path d="M10.2164 13.3463C10.2164 12.8857 10.5873 12.5122 11.0448 12.5122H15.4627C15.9202 12.5122 16.291 12.8857 16.291 13.3463V15.0146C16.291 15.4753 15.9202 15.8488 15.4627 15.8488H11.0448C10.5873 15.8488 10.2164 15.4753 10.2164 15.0146V13.3463Z" fill="#181C32"/>
<path d="M20.709 13.3463C20.709 12.8857 21.0798 12.5122 21.5373 12.5122H25.9552C26.4127 12.5122 26.7836 12.8857 26.7836 13.3463V15.0146C26.7836 15.4753 26.4127 15.8488 25.9552 15.8488H21.5373C21.0798 15.8488 20.709 15.4753 20.709 15.0146V13.3463Z" fill="#181C32"/>
<path fill-rule="evenodd" clip-rule="evenodd" d="M23.0278 6.95122C23.9897 6.21334 24.5746 5.23893 24.5746 4.17073C24.5746 1.8673 21.8549 0 18.5 0C15.1451 0 12.4254 1.8673 12.4254 4.17073C12.4254 5.23893 13.0103 6.21334 13.9722 6.95122H7.45522C5.93026 6.95122 4.69403 8.19609 4.69403 9.73171V21.9659C4.69403 23.5015 5.93026 24.7463 7.45522 24.7463H29.5448C31.0697 24.7463 32.306 23.5015 32.306 21.9659V9.73171C32.306 8.19609 31.0697 6.95122 29.5448 6.95122H23.0278ZM8.00746 13.6244C8.00746 11.7816 9.49093 10.2878 11.3209 10.2878H25.6791C27.5091 10.2878 28.9925 11.7816 28.9925 13.6244V14.7366C28.9925 16.5793 27.5091 18.0732 25.6791 18.0732H11.3209C9.49093 18.0732 8.00746 16.5793 8.00746 14.7366V13.6244Z" fill="#181C32"/>
<path fill-rule="evenodd" clip-rule="evenodd" d="M4.69403 28.639C4.69403 27.1034 5.93026 25.8585 7.45522 25.8585H29.5448C31.0697 25.8585 32.306 27.1034 32.306 28.639V30.5854C32.306 29.5104 33.1713 28.639 34.2388 28.639C35.3063 28.639 36.1716 29.5104 36.1716 30.5854V43.3756C36.1716 44.4505 35.3063 45.322 34.2388 45.322C33.1713 45.322 32.306 44.4505 32.306 43.3756V48.1024C32.306 49.203 31.671 50.1542 30.7498 50.6049H33.9627C35.6401 50.6049 37 51.9742 37 53.6634V53.9415C37 55.6307 35.6401 57 33.9627 57H27.6119C25.9345 57 24.5746 55.6307 24.5746 53.9415V53.6634C24.5746 52.4297 25.3001 51.3665 26.3448 50.8829H10.6552C11.6999 51.3665 12.4254 52.4297 12.4254 53.6634V53.9415C12.4254 55.6307 11.0655 57 9.38806 57H3.03731C1.35985 57 0 55.6307 0 53.9415V53.6634C0 51.9742 1.35985 50.6049 3.03731 50.6049H6.2502C5.32902 50.1542 4.69403 49.203 4.69403 48.1024V43.3756C4.69403 44.4505 3.82866 45.322 2.76119 45.322C1.69373 45.322 0.828358 44.4505 0.828358 43.3756V30.5854C0.828358 29.5104 1.69373 28.639 2.76119 28.639C3.82866 28.639 4.69403 29.5104 4.69403 30.5854V28.639ZM7.45522 30.8634C7.45522 29.6349 8.44421 28.639 9.66418 28.639H27.3358C28.5558 28.639 29.5448 29.6349 29.5448 30.8634V45.878C29.5448 47.1065 28.5558 48.1024 27.3358 48.1024H9.66418C8.44421 48.1024 7.45522 47.1065 7.45522 45.878V30.8634Z" fill="#181C32"/>
<path d="M18.5 45.0439C20.2576 45.0439 21.9431 44.3408 23.1859 43.0894C24.4287 41.8379 25.1269 40.1406 25.1269 38.3707C25.1269 36.6009 24.4287 34.9035 23.1859 33.6521C21.9431 32.4006 20.2576 31.6976 18.5 31.6976C16.7424 31.6976 15.0569 32.4006 13.8141 33.6521C12.5713 34.9035 11.8731 36.6009 11.8731 38.3707C11.8731 40.1406 12.5713 41.8379 13.8141 43.0894C15.0569 44.3408 16.7424 45.0439 18.5 45.0439ZM17.8787 40.6646V38.9963H16.222C15.8777 38.9963 15.6007 38.7174 15.6007 38.3707C15.6007 38.024 15.8777 37.7451 16.222 37.7451H17.8787V36.0768C17.8787 35.7301 18.1557 35.4512 18.5 35.4512C18.8443 35.4512 19.1213 35.7301 19.1213 36.0768V37.7451H20.778C21.1223 37.7451 21.3993 38.024 21.3993 38.3707C21.3993 38.7174 21.1223 38.9963 20.778 38.9963H19.1213V40.6646C19.1213 41.0113 18.8443 41.2902 18.5 41.2902C18.1557 41.2902 17.8787 41.0113 17.8787 40.6646Z" fill="#181C32"/>
<path d="M67.864 16.48V19.828H61.204V41.5H57.1V19.828H50.404V16.48H67.864ZM70.6523 31.492C70.6523 29.5 71.0603 27.736 71.8763 26.2C72.7163 24.664 73.8443 23.476 75.2603 22.636C76.7003 21.772 78.2843 21.34 80.0123 21.34C81.5723 21.34 82.9283 21.652 84.0803 22.276C85.2563 22.876 86.1923 23.632 86.8883 24.544V21.664H91.0283V41.5H86.8883V38.548C86.1923 39.484 85.2443 40.264 84.0443 40.888C82.8443 41.512 81.4763 41.824 79.9403 41.824C78.2363 41.824 76.6763 41.392 75.2603 40.528C73.8443 39.64 72.7163 38.416 71.8763 36.856C71.0603 35.272 70.6523 33.484 70.6523 31.492ZM86.8883 31.564C86.8883 30.196 86.6003 29.008 86.0243 28C85.4723 26.992 84.7403 26.224 83.8283 25.696C82.9163 25.168 81.9323 24.904 80.8763 24.904C79.8203 24.904 78.8363 25.168 77.9243 25.696C77.0123 26.2 76.2683 26.956 75.6923 27.964C75.1403 28.948 74.8643 30.124 74.8643 31.492C74.8643 32.86 75.1403 34.06 75.6923 35.092C76.2683 36.124 77.0123 36.916 77.9243 37.468C78.8603 37.996 79.8443 38.26 80.8763 38.26C81.9323 38.26 82.9163 37.996 83.8283 37.468C84.7403 36.94 85.4723 36.172 86.0243 35.164C86.6003 34.132 86.8883 32.932 86.8883 31.564ZM95.0508 31.564C95.0508 29.524 95.4588 27.736 96.2748 26.2C97.1148 24.64 98.2668 23.44 99.7308 22.6C101.195 21.76 102.875 21.34 104.771 21.34C107.171 21.34 109.151 21.916 110.711 23.068C112.295 24.196 113.363 25.816 113.915 27.928H109.487C109.127 26.944 108.551 26.176 107.759 25.624C106.967 25.072 105.971 24.796 104.771 24.796C103.091 24.796 101.747 25.396 100.739 26.596C99.7548 27.772 99.2628 29.428 99.2628 31.564C99.2628 33.7 99.7548 35.368 100.739 36.568C101.747 37.768 103.091 38.368 104.771 38.368C107.147 38.368 108.719 37.324 109.487 35.236H113.915C113.339 37.252 112.259 38.86 110.675 40.06C109.091 41.236 107.123 41.824 104.771 41.824C102.875 41.824 101.195 41.404 99.7308 40.564C98.2668 39.7 97.1148 38.5 96.2748 36.964C95.4588 35.404 95.0508 33.604 95.0508 31.564ZM122.109 24.616C122.805 23.656 123.753 22.876 124.953 22.276C126.177 21.652 127.533 21.34 129.021 21.34C130.773 21.34 132.357 21.76 133.773 22.6C135.189 23.44 136.305 24.64 137.121 26.2C137.937 27.736 138.345 29.5 138.345 31.492C138.345 33.484 137.937 35.272 137.121 36.856C136.305 38.416 135.177 39.64 133.737 40.528C132.321 41.392 130.749 41.824 129.021 41.824C127.485 41.824 126.117 41.524 124.917 40.924C123.741 40.324 122.805 39.556 122.109 38.62V41.5H118.005V14.86H122.109V24.616ZM134.169 31.492C134.169 30.124 133.881 28.948 133.305 27.964C132.753 26.956 132.009 26.2 131.073 25.696C130.161 25.168 129.177 24.904 128.121 24.904C127.089 24.904 126.105 25.168 125.169 25.696C124.257 26.224 123.513 26.992 122.937 28C122.385 29.008 122.109 30.196 122.109 31.564C122.109 32.932 122.385 34.132 122.937 35.164C123.513 36.172 124.257 36.94 125.169 37.468C126.105 37.996 127.089 38.26 128.121 38.26C129.177 38.26 130.161 37.996 131.073 37.468C132.009 36.916 132.753 36.124 133.305 35.092C133.881 34.06 134.169 32.86 134.169 31.492ZM151.007 41.824C149.135 41.824 147.443 41.404 145.931 40.564C144.419 39.7 143.231 38.5 142.367 36.964C141.503 35.404 141.071 33.604 141.071 31.564C141.071 29.548 141.515 27.76 142.403 26.2C143.291 24.64 144.503 23.44 146.039 22.6C147.575 21.76 149.291 21.34 151.187 21.34C153.083 21.34 154.799 21.76 156.335 22.6C157.871 23.44 159.083 24.64 159.971 26.2C160.859 27.76 161.303 29.548 161.303 31.564C161.303 33.58 160.847 35.368 159.935 36.928C159.023 38.488 157.775 39.7 156.191 40.564C154.631 41.404 152.903 41.824 151.007 41.824ZM151.007 38.26C152.063 38.26 153.047 38.008 153.959 37.504C154.895 37 155.651 36.244 156.227 35.236C156.803 34.228 157.091 33.004 157.091 31.564C157.091 30.124 156.815 28.912 156.263 27.928C155.711 26.92 154.979 26.164 154.067 25.66C153.155 25.156 152.171 24.904 151.115 24.904C150.059 24.904 149.075 25.156 148.163 25.66C147.275 26.164 146.567 26.92 146.039 27.928C145.511 28.912 145.247 30.124 145.247 31.564C145.247 33.7 145.787 35.356 146.867 36.532C147.971 37.684 149.351 38.26 151.007 38.26ZM170.148 25.012V35.992C170.148 36.736 170.316 37.276 170.652 37.612C171.012 37.924 171.612 38.08 172.452 38.08H174.972V41.5H171.732C169.884 41.5 168.468 41.068 167.484 40.204C166.5 39.34 166.008 37.936 166.008 35.992V25.012H163.668V21.664H166.008V16.732H170.148V21.664H174.972V25.012H170.148Z" fill="#181C32"/>
</svg>
