<svg width="169" height="57" viewBox="0 0 169 57" fill="none" xmlns="http://www.w3.org/2000/svg">
<path d="M10.2164 13.3463C10.2164 12.8857 10.5873 12.5122 11.0448 12.5122H15.4627C15.9202 12.5122 16.291 12.8857 16.291 13.3463V15.0146C16.291 15.4753 15.9202 15.8488 15.4627 15.8488H11.0448C10.5873 15.8488 10.2164 15.4753 10.2164 15.0146V13.3463Z" fill="white"/>
<path d="M20.709 13.3463C20.709 12.8857 21.0798 12.5122 21.5373 12.5122H25.9552C26.4127 12.5122 26.7836 12.8857 26.7836 13.3463V15.0146C26.7836 15.4753 26.4127 15.8488 25.9552 15.8488H21.5373C21.0798 15.8488 20.709 15.4753 20.709 15.0146V13.3463Z" fill="white"/>
<path fill-rule="evenodd" clip-rule="evenodd" d="M23.0278 6.95122C23.9897 6.21334 24.5746 5.23893 24.5746 4.17073C24.5746 1.8673 21.8549 0 18.5 0C15.1451 0 12.4254 1.8673 12.4254 4.17073C12.4254 5.23893 13.0103 6.21334 13.9722 6.95122H7.45522C5.93026 6.95122 4.69403 8.19609 4.69403 9.73171V21.9659C4.69403 23.5015 5.93026 24.7463 7.45522 24.7463H29.5448C31.0697 24.7463 32.306 23.5015 32.306 21.9659V9.73171C32.306 8.19609 31.0697 6.95122 29.5448 6.95122H23.0278ZM8.00746 13.6244C8.00746 11.7816 9.49093 10.2878 11.3209 10.2878H25.6791C27.5091 10.2878 28.9925 11.7816 28.9925 13.6244V14.7366C28.9925 16.5793 27.5091 18.0732 25.6791 18.0732H11.3209C9.49093 18.0732 8.00746 16.5793 8.00746 14.7366V13.6244Z" fill="white"/>
<path fill-rule="evenodd" clip-rule="evenodd" d="M4.69403 28.639C4.69403 27.1034 5.93026 25.8585 7.45522 25.8585H29.5448C31.0697 25.8585 32.306 27.1034 32.306 28.639V30.5854C32.306 29.5104 33.1713 28.639 34.2388 28.639C35.3063 28.639 36.1716 29.5104 36.1716 30.5854V43.3756C36.1716 44.4505 35.3063 45.322 34.2388 45.322C33.1713 45.322 32.306 44.4505 32.306 43.3756V48.1024C32.306 49.203 31.671 50.1542 30.7498 50.6049H33.9627C35.6401 50.6049 37 51.9742 37 53.6634V53.9415C37 55.6307 35.6401 57 33.9627 57H27.6119C25.9345 57 24.5746 55.6307 24.5746 53.9415V53.6634C24.5746 52.4297 25.3001 51.3665 26.3448 50.8829H10.6552C11.6999 51.3665 12.4254 52.4297 12.4254 53.6634V53.9415C12.4254 55.6307 11.0655 57 9.38806 57H3.03731C1.35985 57 0 55.6307 0 53.9415V53.6634C0 51.9742 1.35985 50.6049 3.03731 50.6049H6.2502C5.32902 50.1542 4.69403 49.203 4.69403 48.1024V43.3756C4.69403 44.4505 3.82866 45.322 2.76119 45.322C1.69373 45.322 0.828358 44.4505 0.828358 43.3756V30.5854C0.828358 29.5104 1.69373 28.639 2.76119 28.639C3.82866 28.639 4.69403 29.5104 4.69403 30.5854V28.639ZM7.45522 30.8634C7.45522 29.6349 8.44421 28.639 9.66418 28.639H27.3358C28.5558 28.639 29.5448 29.6349 29.5448 30.8634V45.878C29.5448 47.1065 28.5558 48.1024 27.3358 48.1024H9.66418C8.44421 48.1024 7.45522 47.1065 7.45522 45.878V30.8634Z" fill="white"/>
<path d="M18.5 45.0439C20.2576 45.0439 21.9431 44.3408 23.1859 43.0894C24.4287 41.8379 25.1269 40.1406 25.1269 38.3707C25.1269 36.6009 24.4287 34.9035 23.1859 33.6521C21.9431 32.4006 20.2576 31.6976 18.5 31.6976C16.7424 31.6976 15.0569 32.4006 13.8141 33.6521C12.5713 34.9035 11.8731 36.6009 11.8731 38.3707C11.8731 40.1406 12.5713 41.8379 13.8141 43.0894C15.0569 44.3408 16.7424 45.0439 18.5 45.0439ZM17.8787 40.6646V38.9963H16.222C15.8777 38.9963 15.6007 38.7174 15.6007 38.3707C15.6007 38.024 15.8777 37.7451 16.222 37.7451H17.8787V36.0768C17.8787 35.7301 18.1557 35.4512 18.5 35.4512C18.8443 35.4512 19.1213 35.7301 19.1213 36.0768V37.7451H20.778C21.1223 37.7451 21.3993 38.024 21.3993 38.3707C21.3993 38.7174 21.1223 38.9963 20.778 38.9963H19.1213V40.6646C19.1213 41.0113 18.8443 41.2902 18.5 41.2902C18.1557 41.2902 17.8787 41.0113 17.8787 40.6646Z" fill="white"/>
<path d="M59.864 16.48V19.828H53.204V41.5H49.1V19.828H42.404V16.48H59.864ZM62.6523 31.492C62.6523 29.5 63.0603 27.736 63.8763 26.2C64.7163 24.664 65.8443 23.476 67.2603 22.636C68.7003 21.772 70.2843 21.34 72.0123 21.34C73.5723 21.34 74.9283 21.652 76.0803 22.276C77.2563 22.876 78.1923 23.632 78.8883 24.544V21.664H83.0283V41.5H78.8883V38.548C78.1923 39.484 77.2443 40.264 76.0443 40.888C74.8443 41.512 73.4763 41.824 71.9403 41.824C70.2363 41.824 68.6763 41.392 67.2603 40.528C65.8443 39.64 64.7163 38.416 63.8763 36.856C63.0603 35.272 62.6523 33.484 62.6523 31.492ZM78.8883 31.564C78.8883 30.196 78.6003 29.008 78.0243 28C77.4723 26.992 76.7403 26.224 75.8283 25.696C74.9163 25.168 73.9323 24.904 72.8763 24.904C71.8203 24.904 70.8363 25.168 69.9243 25.696C69.0123 26.2 68.2683 26.956 67.6923 27.964C67.1403 28.948 66.8643 30.124 66.8643 31.492C66.8643 32.86 67.1403 34.06 67.6923 35.092C68.2683 36.124 69.0123 36.916 69.9243 37.468C70.8603 37.996 71.8443 38.26 72.8763 38.26C73.9323 38.26 74.9163 37.996 75.8283 37.468C76.7403 36.94 77.4723 36.172 78.0243 35.164C78.6003 34.132 78.8883 32.932 78.8883 31.564ZM87.0508 31.564C87.0508 29.524 87.4588 27.736 88.2748 26.2C89.1148 24.64 90.2668 23.44 91.7308 22.6C93.1948 21.76 94.8748 21.34 96.7708 21.34C99.1708 21.34 101.151 21.916 102.711 23.068C104.295 24.196 105.363 25.816 105.915 27.928H101.487C101.127 26.944 100.551 26.176 99.7588 25.624C98.9668 25.072 97.9708 24.796 96.7708 24.796C95.0908 24.796 93.7468 25.396 92.7388 26.596C91.7548 27.772 91.2628 29.428 91.2628 31.564C91.2628 33.7 91.7548 35.368 92.7388 36.568C93.7468 37.768 95.0908 38.368 96.7708 38.368C99.1468 38.368 100.719 37.324 101.487 35.236H105.915C105.339 37.252 104.259 38.86 102.675 40.06C101.091 41.236 99.1228 41.824 96.7708 41.824C94.8748 41.824 93.1948 41.404 91.7308 40.564C90.2668 39.7 89.1148 38.5 88.2748 36.964C87.4588 35.404 87.0508 33.604 87.0508 31.564ZM114.109 24.616C114.805 23.656 115.753 22.876 116.953 22.276C118.177 21.652 119.533 21.34 121.021 21.34C122.773 21.34 124.357 21.76 125.773 22.6C127.189 23.44 128.305 24.64 129.121 26.2C129.937 27.736 130.345 29.5 130.345 31.492C130.345 33.484 129.937 35.272 129.121 36.856C128.305 38.416 127.177 39.64 125.737 40.528C124.321 41.392 122.749 41.824 121.021 41.824C119.485 41.824 118.117 41.524 116.917 40.924C115.741 40.324 114.805 39.556 114.109 38.62V41.5H110.005V14.86H114.109V24.616ZM126.169 31.492C126.169 30.124 125.881 28.948 125.305 27.964C124.753 26.956 124.009 26.2 123.073 25.696C122.161 25.168 121.177 24.904 120.121 24.904C119.089 24.904 118.105 25.168 117.169 25.696C116.257 26.224 115.513 26.992 114.937 28C114.385 29.008 114.109 30.196 114.109 31.564C114.109 32.932 114.385 34.132 114.937 35.164C115.513 36.172 116.257 36.94 117.169 37.468C118.105 37.996 119.089 38.26 120.121 38.26C121.177 38.26 122.161 37.996 123.073 37.468C124.009 36.916 124.753 36.124 125.305 35.092C125.881 34.06 126.169 32.86 126.169 31.492ZM143.007 41.824C141.135 41.824 139.443 41.404 137.931 40.564C136.419 39.7 135.231 38.5 134.367 36.964C133.503 35.404 133.071 33.604 133.071 31.564C133.071 29.548 133.515 27.76 134.403 26.2C135.291 24.64 136.503 23.44 138.039 22.6C139.575 21.76 141.291 21.34 143.187 21.34C145.083 21.34 146.799 21.76 148.335 22.6C149.871 23.44 151.083 24.64 151.971 26.2C152.859 27.76 153.303 29.548 153.303 31.564C153.303 33.58 152.847 35.368 151.935 36.928C151.023 38.488 149.775 39.7 148.191 40.564C146.631 41.404 144.903 41.824 143.007 41.824ZM143.007 38.26C144.063 38.26 145.047 38.008 145.959 37.504C146.895 37 147.651 36.244 148.227 35.236C148.803 34.228 149.091 33.004 149.091 31.564C149.091 30.124 148.815 28.912 148.263 27.928C147.711 26.92 146.979 26.164 146.067 25.66C145.155 25.156 144.171 24.904 143.115 24.904C142.059 24.904 141.075 25.156 140.163 25.66C139.275 26.164 138.567 26.92 138.039 27.928C137.511 28.912 137.247 30.124 137.247 31.564C137.247 33.7 137.787 35.356 138.867 36.532C139.971 37.684 141.351 38.26 143.007 38.26ZM162.148 25.012V35.992C162.148 36.736 162.316 37.276 162.652 37.612C163.012 37.924 163.612 38.08 164.452 38.08H166.972V41.5H163.732C161.884 41.5 160.468 41.068 159.484 40.204C158.5 39.34 158.008 37.936 158.008 35.992V25.012H155.668V21.664H158.008V16.732H162.148V21.664H166.972V25.012H162.148Z" fill="white"/>
</svg>
